<svg xmlns="http://www.w3.org/2000/svg" version="1.0" preserveAspectRatio="xMidYMid meet" viewBox="175 447.1 850 308.81">

<g transform="translate(0.000000,1200.000000) scale(0.100000,-0.100000)" fill="#000000" stroke="none">
<path d="M5433 7495 c-117 -39 -164 -62 -244 -116 -117 -79 -220 -232 -256 -382 -16 -66 -15 -69 4 -95 23 -32 99 -61 160 -62 38 0 43 3 49 28 14 62 26 89 55 125 46 56 101 81 179 81 125 0 204 -69 234 -206 l6 -28 444 0 443 0 6 40 c16 121 135 213 255 196 100 -14 182 -88 206 -188 6 -25 11 -28 46 -28 33 0 42 4 51 24 9 19 7 33 -9 68 -12 23 -28 83 -37 132 -9 49 -25 105 -35 125 -36 71 -69 79 -465 111 -143 11 -278 25 -299 31 -22 6 -59 26 -84 44 -66 51 -131 80 -151 68 -9 -5 -28 -46 -42 -89 -35 -107 -54 -141 -92 -164 -68 -42 -142 -12 -185 73 -13 27 -32 88 -41 136 -10 48 -21 93 -25 99 -12 20 -67 13 -173 -23z m527 -309 c-13 -18 -33 -39 -44 -46 -11 -7 -3 7 17 31 20 23 37 47 37 52 0 6 3 7 6 4 4 -4 -4 -22 -16 -41z m300 -31 c0 -30 -3 -55 -7 -55 -5 0 -6 25 -5 55 5 71 12 71 12 0z m40 0 c0 -30 -3 -55 -7 -55 -5 0 -6 25 -5 55 5 71 12 71 12 0z m40 0 c0 -30 -3 -55 -7 -55 -5 0 -6 25 -5 55 5 71 12 71 12 0z m40 0 c0 -30 -3 -55 -7 -55 -5 0 -6 25 -5 55 5 71 12 71 12 0z m40 0 c0 -30 -3 -55 -7 -55 -5 0 -6 25 -5 55 5 71 12 71 12 0z m40 0 c0 -30 -3 -55 -7 -55 -5 0 -6 25 -5 55 5 71 12 71 12 0z m40 0 c0 -30 -3 -55 -7 -55 -5 0 -6 25 -5 55 5 71 12 71 12 0z m40 0 c0 -30 -3 -55 -7 -55 -5 0 -6 25 -5 55 5 71 12 71 12 0z m40 0 c0 -30 -3 -55 -7 -55 -5 0 -6 25 -5 55 5 71 12 71 12 0z m40 0 c0 -30 -3 -55 -7 -55 -5 0 -6 25 -5 55 5 71 12 71 12 0z m-210 -171 c0 -29 -3 -55 -7 -57 -5 -3 -6 19 -5 49 3 35 -1 61 -10 72 -12 15 -11 16 5 3 12 -10 17 -28 17 -67z m-122 -7 c-2 -31 -8 -51 -16 -53 -7 -1 -8 0 -2 3 14 7 13 96 -2 113 -11 12 -10 12 5 0 14 -10 17 -24 15 -63z m40 0 c-2 -31 -8 -51 -16 -53 -7 -1 -8 0 -2 3 14 7 13 96 -2 113 -11 12 -10 12 5 0 14 -10 17 -24 15 -63z m122 2 c0 -32 -3 -59 -7 -59 -5 0 -8 29 -8 64 0 35 3 62 8 59 4 -2 7 -31 7 -64z m-84 -45 c-3 -8 -11 -14 -18 -13 -10 0 -10 2 0 6 7 3 13 26 14 56 l1 52 4 -44 c3 -24 2 -50 -1 -57z m-181 -4 c-4 -6 -102 -10 -260 -10 -158 0 -256 -4 -260 -10 -3 -5 -12 -10 -18 -10 -7 1 -1 10 12 20 22 19 39 20 278 20 167 0 252 -3 248 -10z"/>
<path d="M5295 7041 c-217 -100 -152 -412 86 -411 31 0 71 8 95 19 81 37 134 140 119 230 -23 134 -178 218 -300 162z m155 -56 c76 -39 108 -132 71 -207 -47 -97 -163 -122 -240 -52 -69 61 -78 142 -25 211 45 59 131 81 194 48z"/>
<path d="M5315 6916 c-46 -46 -43 -112 8 -150 51 -38 130 -13 150 48 21 63 -26 126 -93 126 -30 0 -47 -6 -65 -24z"/>
<path d="M6654 7042 c-90 -43 -144 -148 -123 -241 15 -66 35 -97 86 -133 149 -102 354 11 341 188 -5 65 -46 136 -98 170 -54 36 -148 43 -206 16z m166 -64 c49 -34 72 -71 77 -125 8 -87 -64 -165 -151 -165 -104 0 -177 90 -155 191 21 101 146 155 229 99z"/>
<path d="M6678 6917 c-73 -68 -13 -188 85 -170 39 8 77 57 77 100 0 79 -104 124 -162 70z"/>
<path d="M7400 6115 l0 -95 1425 0 1425 0 0 95 0 95 -1425 0 -1425 0 0 -95z"/>
<path d="M1750 6095 l0 -95 1425 0 1425 0 0 95 0 95 -1425 0 -1425 0 0 -95z"/>
<path d="M7309 5491 c-52 -53 -29 -141 37 -141 41 0 84 50 84 99 0 71 -68 95 -121 42z"/>
<path d="M5590 5337 l-44 -12 -16 -74 -15 -74 -57 -20 c-56 -18 -58 -20 -58 -53 0 -34 0 -34 45 -34 25 0 45 -3 45 -8 0 -4 -20 -101 -45 -215 -25 -115 -45 -232 -45 -260 0 -134 121 -185 273 -114 87 41 90 45 77 100 l-12 46 -42 -27 c-83 -56 -124 -64 -156 -32 -28 28 -26 58 25 293 25 115 45 210 45 213 0 2 47 4 105 4 l104 0 10 38 c18 64 21 62 -93 62 l-104 0 14 68 c8 37 16 77 19 90 6 26 -5 27 -75 9z"/>
<path d="M7694 5338 l-42 -10 -16 -78 -17 -77 -60 -18 c-56 -17 -59 -20 -59 -51 0 -32 1 -33 48 -36 l48 -3 -48 -225 c-26 -124 -48 -237 -48 -252 0 -43 29 -105 58 -125 44 -29 153 -25 222 10 88 44 90 46 77 95 -6 23 -14 42 -18 42 -4 0 -30 -14 -56 -30 -97 -60 -153 -48 -153 33 -1 23 18 135 42 249 l43 208 106 0 107 0 6 36 c4 19 10 42 13 50 4 12 -13 14 -101 14 -119 0 -113 -6 -91 85 25 103 24 103 -61 83z"/>
<path d="M4485 5183 c-40 -10 -103 -63 -141 -119 -45 -65 -52 -56 -29 41 8 37 13 70 11 72 -9 9 -107 -9 -112 -21 -5 -15 -144 -676 -144 -687 0 -5 25 -9 55 -9 48 0 55 3 60 23 3 12 19 87 35 166 33 155 50 196 131 303 63 84 104 111 163 106 l44 -3 13 58 c10 50 10 60 -2 68 -15 9 -51 10 -84 2z"/>
<path d="M4939 5176 c-109 -29 -213 -121 -277 -244 -99 -189 -98 -394 1 -464 25 -18 45 -23 92 -23 76 1 144 36 216 112 27 29 51 53 52 53 1 0 0 -22 -1 -48 -2 -28 3 -64 11 -85 l15 -36 51 16 c47 16 50 18 43 42 -15 55 -2 165 47 396 29 132 54 247 57 256 4 13 -12 18 -90 27 -116 15 -158 14 -217 -2z m163 -91 c22 -9 -23 -212 -68 -303 -65 -134 -202 -255 -269 -238 -73 18 -73 203 1 348 34 66 118 156 169 179 38 18 136 26 167 14z"/>
<path d="M6225 5181 c-152 -40 -290 -217 -317 -406 -38 -273 158 -411 410 -290 38 18 72 37 75 42 3 4 1 29 -5 54 l-11 46 -54 -33 c-97 -58 -191 -67 -246 -24 -27 21 -41 57 -52 127 -6 40 -5 43 22 48 184 41 347 135 394 226 37 74 18 164 -43 195 -36 19 -129 27 -173 15z m93 -107 c53 -37 6 -122 -97 -173 -64 -32 -156 -64 -171 -59 -16 5 44 121 87 169 38 43 101 78 138 79 11 0 31 -7 43 -16z"/>
<path d="M7240 5165 c0 -9 -140 -668 -146 -687 -5 -16 2 -18 53 -18 l58 0 73 348 c40 191 73 350 73 355 -1 8 -111 10 -111 2z"/>
<path d="M6610 4855 l0 -55 175 0 175 0 0 55 0 55 -175 0 -175 0 0 -55z"/>
</g>
</svg>